<svg id="Layer_3" data-name="Layer 3" xmlns="http://www.w3.org/2000/svg" viewBox="0 0 192 192"><defs><style>.cls-1{fill:#3ab591;stroke:#231f20;}.cls-1,.cls-2,.cls-3,.cls-4,.cls-7,.cls-8,.cls-9{stroke-miterlimit:10;}.cls-2{fill:#343638;}.cls-2,.cls-3,.cls-4,.cls-5{stroke:#1d1c1a;}.cls-2,.cls-3,.cls-4{stroke-width:0.5px;}.cls-3{fill:#9bd9e5;}.cls-4,.cls-5{fill:none;}.cls-5{stroke-linecap:round;stroke-linejoin:round;}.cls-6{fill:#daf0f6;}.cls-7{fill:#e71d25;}.cls-7,.cls-8,.cls-9{stroke:#000;}.cls-8{fill:#e5e5e4;}.cls-9{fill:#cccbcb;}.cls-10{fill:#fff;}</style></defs><title>car dent</title><polygon id="_Path_" data-name="&lt;Path&gt;" class="cls-1" points="163.37 122.32 83.54 42.49 11.57 42.49 11.57 165.22 163.37 165.22 163.37 122.32"/><rect id="_Path_2" data-name="&lt;Path&gt;" class="cls-2" x="11.57" y="165.22" width="151.8" height="19.78"/><polygon id="_Path_3" data-name="&lt;Path&gt;" class="cls-3" points="21.58 55.36 21.58 107.31 126.43 107.31 74.48 55.36 21.58 55.36"/><polygon id="_Path_4" data-name="&lt;Path&gt;" class="cls-4" points="11.57 113.37 11.57 165.22 163.37 165.22 163.37 122.32 83.54 42.49 11.57 42.49 11.57 92.49 11.57 113.37"/><polygon id="_Path_5" data-name="&lt;Path&gt;" class="cls-5" points="137.78 185 163.37 185 163.37 165.22 11.57 165.22 11.57 185 102.99 185 137.78 185"/><polygon id="_Path_6" data-name="&lt;Path&gt;" class="cls-5" points="98.58 107.31 126.43 107.31 74.48 55.36 21.58 55.36 21.58 107.31 76.78 107.31 98.58 107.31"/><path id="_Path_7" data-name="&lt;Path&gt;" class="cls-6" d="M94.66,97.42c-2.76-.15-5.52-.24-8.28-.36s-5.52-.2-8.28-.29-5.52-.18-8.28-.24l-8.28-.19-8.28-.13L45,96.11l-3.88,0c1.77-1.75,3.54-3.51,5.28-5.28l8.34-8.42L63,73.9l4.12-4.26,4.09-4.29,0-.05a1.39,1.39,0,0,0-1-2.34c-3,.07-5.91.13-8.87.23l-8.87.3c-3,.13-5.91.23-8.87.38s-5.91.31-8.87.49c3,.18,5.91.35,8.87.49s5.91.25,8.87.38l8.87.3c1.82.07,3.64.11,5.46.15L65,67.47,60.7,71.59l-8.49,8.27-8.42,8.34C41,91,38.21,93.8,35.43,96.6h0a1.81,1.81,0,0,0,1.3,3.09l8.28,0,8.28-.11,8.28-.13,8.28-.19c2.76-.05,5.52-.14,8.28-.24s5.52-.16,8.28-.29,5.52-.21,8.28-.36,5.52-.29,8.28-.46C100.17,97.72,97.42,97.55,94.66,97.42Z"/><path id="_Path_8" data-name="&lt;Path&gt;" class="cls-7" d="M177.22,64.22a2.57,2.57,0,0,1,0,3.63l-2.07,2.08a2.57,2.57,0,0,1-3.63,0L156.87,55.27l5.71-5.71Z"/><g id="_Group_" data-name="&lt;Group&gt;"><path id="_Path_9" data-name="&lt;Path&gt;" class="cls-8" d="M172,11.1A8.13,8.13,0,0,1,169,24.77a11.92,11.92,0,0,0-4.79,2.9L149.61,42.23l-4.72-4.72L155,27.41a11.63,11.63,0,0,0,3.39-9.48A8.11,8.11,0,0,1,165.14,9l-1.52,4.86A3.6,3.6,0,1,0,170.48,16Z"/><path id="_Path_10" data-name="&lt;Path&gt;" class="cls-8" d="M150.09,41.75,139.43,52.41A11.62,11.62,0,0,0,136,61.88a8.11,8.11,0,0,1-6.76,8.92l1.52-4.86a3.6,3.6,0,0,0-2.36-4.5h0a3.6,3.6,0,0,0-4.5,2.36l-1.54,4.92a8.13,8.13,0,0,1,3.06-13.67,11.93,11.93,0,0,0,4.79-2.9L145.37,37Z"/></g><polygon id="_Path_11" data-name="&lt;Path&gt;" class="cls-9" points="159.64 49.36 156.66 52.34 148.08 43.76 143.36 39.04 125.25 20.94 125.15 21.04 121.64 20.71 116.28 12.16 119.47 8.98 128.01 14.34 128.34 17.85 128.24 17.95 146.34 36.06 151.06 40.78 159.64 49.36"/><path id="_Path_12" data-name="&lt;Path&gt;" class="cls-7" d="M163.77,47l-1,2.75L157,55.44l-2.75,1a.6.6,0,0,1-.63-.14l-1.41-1.41a.6.6,0,0,1,0-.85L155.31,51l3-3,3.07-3.08a.6.6,0,0,1,.85,0l1.41,1.41A.6.6,0,0,1,163.77,47Z"/><path id="_Compound_Path_" data-name="&lt;Compound Path&gt;" class="cls-10" d="M79.56,137.69l10.2-6.31-9.85-1,2.66-11.09-7,7-1.94-7.89-2.95,7.37-8-10,2.52,12.48-7.11-1.54s2.16,4,3.37,6.41l-11.4-.77,10.32,5.83-3,2.95,4.79-.85-3.39,11.63,10.11-8.17,2.61,6.32,2.7-5.06,8.69,8.69L78.6,142.08l9.56.94Zm0,0"/></svg>