<svg id="Layer_8" data-name="Layer 8" xmlns="http://www.w3.org/2000/svg" viewBox="0 0 192 192"><defs><style>.cls-1{fill:#1a1a1a;}.cls-2{fill:#f21c1c;}.cls-3{fill:#fff;}.cls-4{fill:#6d6d6d;}.cls-5{fill:#f9ff15;}</style></defs><title>complete car spa</title><path id="_Path_" data-name="&lt;Path&gt;" class="cls-1" d="M180.72,99.39a24.69,24.69,0,0,0-8-8.53L167,87.09l4.92-1.35a9.2,9.2,0,0,0,6.74-8.85V75.72a4.89,4.89,0,0,0-4.88-4.88H161.1a7.66,7.66,0,0,0-5.75,2.58l-8.94-14.87a13.9,13.9,0,0,0-9.91-6.61,282.56,282.56,0,0,0-83.37,0,13.9,13.9,0,0,0-9.91,6.61L34.28,73.42a7.66,7.66,0,0,0-5.75-2.58H15.9A4.89,4.89,0,0,0,11,75.72v1.17a9.2,9.2,0,0,0,6.74,8.85l4.92,1.35-5.77,3.77A24.59,24.59,0,0,0,5.84,113.34L7.67,137v25.58a10.23,10.23,0,0,0,10.22,10.22h12A10.23,10.23,0,0,0,40.1,162.54v-5.43c18.25.88,36.58,1.33,54.72,1.33s36.48-.45,54.72-1.33v5.43a10.23,10.23,0,0,0,10.22,10.22h12A10.23,10.23,0,0,0,182,162.54V137l1.83-23.62A24.51,24.51,0,0,0,180.72,99.39Z"/><path id="_Compound_Path_" data-name="&lt;Compound Path&gt;" class="cls-2" d="M178.41,101.2a21,21,0,0,0-6.8-7.26L162,87.69a2,2,0,0,1,.56-3.61l9.28-2.55a5.31,5.31,0,0,0,3.89-5.11V75.23a.94.94,0,0,0-.94-.94H162a3.76,3.76,0,0,0-3.71,3.1,2,2,0,0,1-3.69.68L143.69,59.88a10.1,10.1,0,0,0-7.2-4.8,282.48,282.48,0,0,0-83.35,0,10.1,10.1,0,0,0-7.2,4.8L35,78.06a2,2,0,0,1-3.69-.68,3.77,3.77,0,0,0-3.71-3.1H14.81a.94.94,0,0,0-.94.94v1.18a5.31,5.31,0,0,0,3.89,5.11L27,84.07a2,2,0,0,1,.56,3.61L18,93.94A20.92,20.92,0,0,0,8.6,113.07L9.68,127l.22,2.81.57,7.37.57,7.41a8.74,8.74,0,0,0,8.09,8q8.08.53,16.2.95l2,.11,2,.1c18.5.89,37.08,1.35,55.48,1.35s37-.46,55.48-1.35l2-.1,2-.11q8.12-.42,16.2-.95a8.74,8.74,0,0,0,8.09-8l.57-7.41.57-7.37L180,127,181,113.07A20.85,20.85,0,0,0,178.41,101.2ZM33.9,83.47,47.51,60.83a8.27,8.27,0,0,1,5.9-3.93,280.64,280.64,0,0,1,82.81,0,8.27,8.27,0,0,1,5.9,3.93l13.61,22.64a2,2,0,0,1-1.72,3h-.17C134.26,84.83,114.4,84,94.82,84s-39.45.85-59,2.52a2,2,0,0,1-1.89-3ZM13.09,119.35a5.55,5.55,0,0,1-1-4.19l1.23-7.71a5.57,5.57,0,0,1,5.52-4.71,5.64,5.64,0,0,1,.89.07L50,107.7a4.06,4.06,0,0,1,2.47,6.62l-1.93,2.3a11,11,0,0,1-7.22,3.88l-18,2a8.75,8.75,0,0,1-2.27,0l-6.32-.94A5.55,5.55,0,0,1,13.09,119.35Zm48.23,27.77a5.06,5.06,0,0,1-4.19,2.23H57c-5.88-.16-11.78-.36-17.65-.6l-2-.08-2-.08-7.66-.36a12.06,12.06,0,0,1-11.31-9.92l-.76-4.17a2,2,0,0,1,2-2.36h34a8.91,8.91,0,0,1,8.32,5.64l2,5A5.08,5.08,0,0,1,61.32,147.13Zm51.18,2.48c-5.87.26-11.82.4-17.68.4s-11.82-.13-17.68-.4a9.49,9.49,0,0,1-8.48-6.2L58.73,116.6a7.24,7.24,0,0,1,6.79-9.75h58.59a7.24,7.24,0,0,1,6.79,9.75L121,143.41A9.49,9.49,0,0,1,112.5,149.61ZM174,134.14l-.76,4.17A12.06,12.06,0,0,1,162,148.23l-7.66.36-2,.08-2,.08c-5.87.24-11.76.44-17.65.6h-.14a5.08,5.08,0,0,1-4.71-7l2-5a8.91,8.91,0,0,1,8.32-5.64h34a2,2,0,0,1,2,2.36Zm2.51-14.79a5.55,5.55,0,0,1-3.69,2.23l-6.31.94a8.8,8.8,0,0,1-1.28.09h0a8.75,8.75,0,0,1-1-.06l-18-2a11,11,0,0,1-7.22-3.88l-1.93-2.3a4.06,4.06,0,0,1,2.47-6.62l30.31-4.88a5.64,5.64,0,0,1,.89-.07,5.57,5.57,0,0,1,5.52,4.71l1.23,7.71A5.55,5.55,0,0,1,176.55,119.35Z"/><path id="_Compound_Path_2" data-name="&lt;Compound Path&gt;" class="cls-3" d="M138.69,62.9a4.28,4.28,0,0,0-3-2,276.65,276.65,0,0,0-81.64,0,4.28,4.28,0,0,0-3.05,2L39.35,82.18C57.78,80.72,76.42,80,94.82,80s37,.74,55.47,2.21ZM49.4,111.66l-30.31-4.88-.26,0a1.59,1.59,0,0,0-1.56,1.33L16,115.8a1.58,1.58,0,0,0,1.33,1.82l6.31.94a4.71,4.71,0,0,0,1.22,0l18-2a7,7,0,0,0,4.6-2.47l1.93-2.3s0,0,0-.05S49.42,111.66,49.4,111.66Zm124.2,4.14-1.23-7.71a1.59,1.59,0,0,0-1.56-1.33l-.26,0-30.31,4.88s0,0,0,0,0,0,0,.05l1.93,2.3a7,7,0,0,0,4.6,2.47l18,2a4.76,4.76,0,0,0,.53,0h0a4.73,4.73,0,0,0,.69-.05l6.31-.94a1.58,1.58,0,0,0,1.33-1.82Z"/><path id="_Compound_Path_3" data-name="&lt;Compound Path&gt;" class="cls-4" d="M124.12,110.86H65.52a3.23,3.23,0,0,0-3,4.35L72.41,142a5.48,5.48,0,0,0,4.9,3.59c5.81.26,11.7.39,17.5.39s11.7-.13,17.5-.39a5.48,5.48,0,0,0,4.9-3.59l9.92-26.81a3.23,3.23,0,0,0-3-4.35Zm-68,28a4.92,4.92,0,0,0-4.6-3.12H20l.33,1.81a8.07,8.07,0,0,0,7.57,6.63l7.46.35,2,.08,2,.08c5.9.24,11.84.44,17.75.6h0a1.07,1.07,0,0,0,1-1.47l-.83-2.08ZM10.47,152.58v10.68a6.36,6.36,0,0,0,6.35,6.35H29a6.36,6.36,0,0,0,6.35-6.35v-5.71q-8.25-.43-16.46-1A12.66,12.66,0,0,1,10.47,152.58Zm160.3,4q-8.21.54-16.46,1v5.71a6.36,6.36,0,0,0,6.35,6.35h12.16a6.36,6.36,0,0,0,6.35-6.35V152.58A12.66,12.66,0,0,1,170.77,156.59Zm-9-12.37a8.06,8.06,0,0,0,7.56-6.63l.33-1.81H138.1a4.92,4.92,0,0,0-4.6,3.12l-2,5a1.07,1.07,0,0,0,1,1.47h0c5.92-.16,11.85-.36,17.75-.6l2-.08,2-.08Z"/><path id="_Path_2" data-name="&lt;Path&gt;" class="cls-1" d="M109.94,87.36a1.16,1.16,0,0,0,2.33,0,7.52,7.52,0,0,1,7.51-7.51,1.16,1.16,0,0,0,0-2.33A7.52,7.52,0,0,1,112.27,70a1.16,1.16,0,1,0-2.33,0,7.52,7.52,0,0,1-7.51,7.51,1.16,1.16,0,0,0,0,2.33A7.52,7.52,0,0,1,109.94,87.36Z"/><path id="_Path_3" data-name="&lt;Path&gt;" class="cls-1" d="M51.87,36.91A13,13,0,0,1,38.93,24a2,2,0,1,0-4,0A13,13,0,0,1,22,36.91a2,2,0,0,0,0,4A13,13,0,0,1,34.92,53.86a2,2,0,0,0,4,0A13,13,0,0,1,51.87,40.92a2,2,0,0,0,0-4Z"/><path id="_Path_4" data-name="&lt;Path&gt;" class="cls-1" d="M159.34,24.11A13,13,0,0,1,146.4,11.17a2,2,0,0,0-4,0,13,13,0,0,1-12.94,12.94,2,2,0,1,0,0,4,13,13,0,0,1,12.94,12.94,2,2,0,1,0,4,0,13,13,0,0,1,12.94-12.94,2,2,0,0,0,0-4Z"/><path id="_Path_5" data-name="&lt;Path&gt;" class="cls-1" d="M117.07,165a13,13,0,0,1-12.94-12.94,2,2,0,1,0-4,0A13,13,0,0,1,87.18,165a2,2,0,0,0,0,4A13,13,0,0,1,100.12,182a2,2,0,0,0,4,0,13,13,0,0,1,12.94-12.94,2,2,0,1,0,0-4Z"/><path id="_Path_6" data-name="&lt;Path&gt;" class="cls-5" d="M115.14,78.69a9.91,9.91,0,0,1-4-4,9.91,9.91,0,0,1-4,4,9.91,9.91,0,0,1,4,4A9.91,9.91,0,0,1,115.14,78.69Z"/><path id="_Path_7" data-name="&lt;Path&gt;" class="cls-5" d="M36.92,32a17.07,17.07,0,0,1-7,7,17.07,17.07,0,0,1,7,7,17.07,17.07,0,0,1,7-7A17.07,17.07,0,0,1,36.92,32Z"/><path id="_Path_8" data-name="&lt;Path&gt;" class="cls-5" d="M144.39,19.16a17.07,17.07,0,0,1-7,7,17.07,17.07,0,0,1,7,7,17.07,17.07,0,0,1,7-7A17.07,17.07,0,0,1,144.39,19.16Z"/><path id="_Path_9" data-name="&lt;Path&gt;" class="cls-5" d="M102.12,160.09a17.07,17.07,0,0,1-7,7,17.06,17.06,0,0,1,7,7,17.07,17.07,0,0,1,7-7A17.07,17.07,0,0,1,102.12,160.09Z"/></svg>