<svg id="Layer_7" data-name="Layer 7" xmlns="http://www.w3.org/2000/svg" viewBox="0 0 192 192"><defs><style>.cls-1{fill:#00568d;}.cls-1,.cls-11,.cls-13,.cls-4,.cls-9{stroke:#221f1f;}.cls-1,.cls-11,.cls-13,.cls-4,.cls-5,.cls-7,.cls-9{stroke-miterlimit:10;}.cls-2{fill:#abc3e5;}.cls-3{fill:#f1f1f1;}.cls-4{fill:#93b4dd;}.cls-5,.cls-7,.cls-8,.cls-9{fill:none;}.cls-5{stroke:#a5a7aa;stroke-width:1.37px;}.cls-6{fill:#d0d1d2;}.cls-7,.cls-8{stroke:#a3cc39;stroke-width:0.5px;}.cls-8{stroke-linecap:round;stroke-linejoin:round;}.cls-10,.cls-13{fill:#9f9e9e;}.cls-11{fill:#fbae17;}.cls-12{fill:#fddb00;}.cls-14{fill:#d5d6d7;}</style></defs><title>general service02</title><path id="_Path_" data-name="&lt;Path&gt;" class="cls-1" d="M133.33,16.59H24.18a4.72,4.72,0,0,0-4.69,4.72V177.11a4.72,4.72,0,0,0,4.69,4.72H133.33a4.72,4.72,0,0,0,4.69-4.72V21.31A4.72,4.72,0,0,0,133.33,16.59Z"/><path id="_Path_2" data-name="&lt;Path&gt;" class="cls-2" d="M105.71,21.41H51.81a1.87,1.87,0,0,0-1.9,2.32l2.62,13.49a3,3,0,0,0,2.8,2.32h46.86a3,3,0,0,0,2.8-2.32l2.62-13.49A1.87,1.87,0,0,0,105.71,21.41Z"/><rect id="_Path_3" data-name="&lt;Path&gt;" class="cls-3" x="24.25" y="21.41" width="109.02" height="140.62"/><path id="_Path_4" data-name="&lt;Path&gt;" class="cls-4" d="M99.84,9.8H57.67a1.87,1.87,0,0,0-1.9,2.32L58.4,25.6a3,3,0,0,0,2.8,2.32H96.32a3,3,0,0,0,2.8-2.32l2.62-13.49A1.87,1.87,0,0,0,99.84,9.8Z"/><rect id="_Path_5" data-name="&lt;Path&gt;" class="cls-5" x="30.7" y="37.19" width="9.38" height="9.44"/><rect id="_Path_6" data-name="&lt;Path&gt;" class="cls-6" x="43.02" y="39.55" width="63.34" height="4.84"/><rect id="_Path_7" data-name="&lt;Path&gt;" class="cls-5" x="30.7" y="51.97" width="9.38" height="9.44"/><rect id="_Path_8" data-name="&lt;Path&gt;" class="cls-6" x="43.02" y="54.33" width="63.34" height="4.84"/><rect id="_Path_9" data-name="&lt;Path&gt;" class="cls-5" x="30.7" y="66.74" width="9.38" height="9.44"/><rect id="_Path_10" data-name="&lt;Path&gt;" class="cls-6" x="43.02" y="69.1" width="63.34" height="4.84"/><rect id="_Path_11" data-name="&lt;Path&gt;" class="cls-5" x="30.7" y="81.52" width="9.38" height="9.44"/><rect id="_Path_12" data-name="&lt;Path&gt;" class="cls-6" x="43.02" y="83.88" width="63.34" height="4.84"/><rect id="_Path_13" data-name="&lt;Path&gt;" class="cls-5" x="30.7" y="96.29" width="9.38" height="9.44"/><rect id="_Path_14" data-name="&lt;Path&gt;" class="cls-6" x="43.02" y="98.65" width="63.34" height="4.84"/><rect id="_Path_15" data-name="&lt;Path&gt;" class="cls-5" x="30.7" y="111.07" width="9.38" height="9.44"/><rect id="_Path_16" data-name="&lt;Path&gt;" class="cls-6" x="43.02" y="113.43" width="63.34" height="4.84"/><rect id="_Path_17" data-name="&lt;Path&gt;" class="cls-5" x="30.7" y="125.84" width="9.38" height="9.44"/><rect id="_Path_18" data-name="&lt;Path&gt;" class="cls-6" x="43.02" y="128.21" width="63.34" height="4.84"/><polyline id="_Path_19" data-name="&lt;Path&gt;" class="cls-7" points="32.98 40.83 36.12 44 41.55 38.54"/><polyline id="_Path_20" data-name="&lt;Path&gt;" class="cls-7" points="32.98 55.51 36.12 58.68 41.55 53.22"/><polyline id="_Path_21" data-name="&lt;Path&gt;" class="cls-8" points="32.98 70.2 36.12 73.36 41.55 67.9"/><polyline id="_Path_22" data-name="&lt;Path&gt;" class="cls-8" points="32.98 84.88 36.12 88.04 41.55 82.58"/><polyline id="_Path_23" data-name="&lt;Path&gt;" class="cls-8" points="32.98 99.56 36.12 102.72 41.55 97.27"/><polyline id="_Path_24" data-name="&lt;Path&gt;" class="cls-8" points="32.98 114.24 36.12 117.41 41.55 111.95"/><polyline id="_Path_25" data-name="&lt;Path&gt;" class="cls-8" points="32.98 128.92 36.12 132.09 41.55 126.63"/><g id="_Group_" data-name="&lt;Group&gt;"><g id="_Group_2" data-name="&lt;Group&gt;"><g id="_Group_3" data-name="&lt;Group&gt;"><path id="_Compound_Path_" data-name="&lt;Compound Path&gt;" class="cls-9" d="M156.36,166.42l0-52.91a9.08,9.08,0,0,0-.09-16.12c0,2.52,0,4.25,0,5.27a4.07,4.07,0,1,1-8.14,0c0-.94,0-2.63,0-5.27a9.08,9.08,0,0,0-.06,16.12l0,52.91a9,9,0,1,0,8.29,0Zm-4.13,13.37-4.43-2.57v-5.14l4.42-2.57,4.43,2.57v5.14Z"/></g></g><path id="_Compound_Path_2" data-name="&lt;Compound Path&gt;" class="cls-10" d="M148.6,113.16l0,53.62-.31.16a8.47,8.47,0,0,0-4.55,7.53h0a8.43,8.43,0,1,0,12.3-7.54l-.31-.16,0-53.62L156,113a8.5,8.5,0,0,0,.76-14.59v4.26a4.65,4.65,0,1,1-9.3,0v-1.12c0-.79,0-1.82,0-3.14a8.5,8.5,0,0,0,.79,14.59Zm-1.38,64.4v-5.81l5-2.91,5,2.9v5.81l-5,2.91Z"/><path id="_Path_26" data-name="&lt;Path&gt;" class="cls-6" d="M154.25,161.28c0-1.15,0-42.58,0-42.58a2.07,2.07,0,1,0-4.14,0c0,1.15,0,42.58,0,42.58a2.07,2.07,0,1,0,4.14,0Z"/></g><path id="_Path_27" data-name="&lt;Path&gt;" class="cls-11" d="M175.63,145.72h-9.56a1.71,1.71,0,0,0-1.7,1.71v34.28a1.71,1.71,0,0,0,1.7,1.71h9.56a1.71,1.71,0,0,0,1.7-1.71V147.44A1.71,1.71,0,0,0,175.63,145.72Z"/><g id="_Group_4" data-name="&lt;Group&gt;"><path id="_Path_28" data-name="&lt;Path&gt;" class="cls-12" d="M169.53,179.75a1.56,1.56,0,1,1-3.12,0V149.41a1.56,1.56,0,1,1,3.12,0Z"/><path id="_Path_29" data-name="&lt;Path&gt;" class="cls-12" d="M175.29,179.75a1.56,1.56,0,1,1-3.12,0V149.41a1.56,1.56,0,1,1,3.12,0Z"/></g><path id="_Path_30" data-name="&lt;Path&gt;" class="cls-11" d="M175.63,136.83h-9.56a1.71,1.71,0,0,0-1.7,1.71v1.23a1.71,1.71,0,0,0,1.7,1.71h9.56a1.71,1.71,0,0,0,1.7-1.71v-1.23A1.71,1.71,0,0,0,175.63,136.83Z"/><g id="_Group_5" data-name="&lt;Group&gt;"><rect id="_Path_31" data-name="&lt;Path&gt;" class="cls-12" x="166.41" y="138.22" width="3.12" height="1.93"/><rect id="_Path_32" data-name="&lt;Path&gt;" class="cls-12" x="172.17" y="138.22" width="3.12" height="1.93"/></g><rect id="_Path_33" data-name="&lt;Path&gt;" class="cls-11" x="166.11" y="141.49" width="9.47" height="4.24"/><polygon id="_Path_34" data-name="&lt;Path&gt;" class="cls-13" points="173.98 101.72 172.73 96.55 168.91 96.55 167.65 101.72 168.91 106.11 168.91 136.16 172.73 136.16 172.73 106.11 173.98 101.72"/><path id="_Compound_Path_3" data-name="&lt;Compound Path&gt;" class="cls-14" d="M172.12,106.34l1.24-4.36-1.1-4.55h-2.82l-1.1,4.55,1.24,4.36,1.27,1.92Z"/></svg>