<svg id="Layer_5" data-name="Layer 5" xmlns="http://www.w3.org/2000/svg" viewBox="0 0 192 192"><defs><style>.cls-1,.cls-2{fill:#221f1f;}.cls-1,.cls-10,.cls-2,.cls-3,.cls-4,.cls-6{stroke:#221f1f;}.cls-1,.cls-10,.cls-2,.cls-3,.cls-4,.cls-6,.cls-7{stroke-miterlimit:10;}.cls-1,.cls-10,.cls-3,.cls-4,.cls-6{stroke-width:0.5px;}.cls-2{stroke-width:6px;}.cls-3{fill:#6b6b6b;}.cls-4{fill:#f5e11a;}.cls-5{fill:#dfdfdf;}.cls-6{fill:#7d7d7d;}.cls-7{fill:#050505;stroke:#fff;}.cls-8{fill:#f2ba28;}.cls-9{fill:#f6e338;}.cls-10{fill:#844b9c;}</style></defs><title>interior detailing</title><g id="_Group_" data-name="&lt;Group&gt;"><g id="_Group_2" data-name="&lt;Group&gt;"><rect id="_Path_" data-name="&lt;Path&gt;" class="cls-1" x="144.22" y="37.75" width="2.49" height="13.32"/><g id="_Group_3" data-name="&lt;Group&gt;"><rect id="_Path_2" data-name="&lt;Path&gt;" class="cls-2" x="52.76" y="153.81" width="9.39" height="11.68"/><rect id="_Path_3" data-name="&lt;Path&gt;" class="cls-2" x="104.84" y="162.37" width="9.39" height="11.68"/></g></g><path id="_Path_4" data-name="&lt;Path&gt;" class="cls-3" d="M31.38,130.71a12.43,12.43,0,0,0-4.12,6.84c-1.47,6.77,1.34,16.33,10.55,17.74l80.46,12a12.74,12.74,0,0,0,15.13-9.63,12.29,12.29,0,0,0-1-8.08Z"/><path id="_Path_5" data-name="&lt;Path&gt;" class="cls-4" d="M123.61,142.73,42.39,127.91a12.86,12.86,0,0,0-11,2.8l101,18.83A12.68,12.68,0,0,0,123.61,142.73Z"/><path id="_Path_6" data-name="&lt;Path&gt;" class="cls-4" d="M128,57.69l-17,68.9a13.62,13.62,0,0,0,1.81,10.16l22.45-88.49A13.86,13.86,0,0,0,128,57.69Z"/><path id="_Path_7" data-name="&lt;Path&gt;" class="cls-3" d="M144.69,47a14.24,14.24,0,0,0-9.42,1.27l-22.45,88.49a14.17,14.17,0,0,0,25.76-4.44l19.59-66.86C160.86,55.66,152.31,48.56,144.69,47Z"/><ellipse id="_Path_8" data-name="&lt;Path&gt;" class="cls-1" cx="120.24" cy="142.8" rx="8.04" ry="7.91"/><ellipse id="_Path_9" data-name="&lt;Path&gt;" class="cls-5" cx="120.24" cy="142.8" rx="3.9" ry="3.84"/><path id="_Path_10" data-name="&lt;Path&gt;" class="cls-4" d="M134.69,18.32V30.55a11.33,11.33,0,0,0,4.83,9.25V9.06A11.33,11.33,0,0,0,134.69,18.32Z"/><path id="_Path_11" data-name="&lt;Path&gt;" class="cls-3" d="M146.29,6.9a11.67,11.67,0,0,0-6.78,2.16V39.8A11.67,11.67,0,0,0,146.29,42a11.51,11.51,0,0,0,11.6-11.42V18.32A11.51,11.51,0,0,0,146.29,6.9Z"/><polygon id="_Path_12" data-name="&lt;Path&gt;" class="cls-6" points="126.65 173.24 34.89 159.65 40.97 181.41 126.65 181.41 126.65 173.24"/><polygon id="_Path_13" data-name="&lt;Path&gt;" class="cls-1" points="40.97 181.41 42.33 186.28 126.65 186.28 126.65 181.41 40.97 181.41"/><g id="_Group_4" data-name="&lt;Group&gt;"><path id="_Compound_Path_" data-name="&lt;Compound Path&gt;" class="cls-7" d="M126.18,50.35a1.22,1.22,0,0,1-.18-1.66A14.84,14.84,0,0,1,127.17,47a4.6,4.6,0,0,0,1.17-3.55,18.91,18.91,0,0,1,0-2,1.28,1.28,0,0,1,.67-1.22,1.31,1.31,0,0,1,1.43.17c.89.6,1.8,1.17,2.66,1.8a2.36,2.36,0,0,0,1.51.38,32.57,32.57,0,0,1,3.42.16,1.17,1.17,0,0,1,.74,1.9c-.5.75-1,1.52-1.54,2.22a3.37,3.37,0,0,0-.79,2.39c0,.85,0,1.71-.05,2.56a1.25,1.25,0,0,1-.71,1.19,1.3,1.3,0,0,1-1.4-.13l-2.9-2a1.25,1.25,0,0,0-.72-.24c-1.17,0-2.34-.06-3.52-.09A1.51,1.51,0,0,1,126.18,50.35ZM134.92,46l.38-.53c.06-.09.19-.17.11-.28s-.17-.05-.27-.05l-1.61,0a1.85,1.85,0,0,1-1.08-.35c-.45-.32-.92-.6-1.37-.92-.25-.18-.29-.09-.29.16,0,.54,0,1.09,0,1.63a1.74,1.74,0,0,1-.33,1c-.33.45-.63.93-1,1.38-.15.21-.11.28.14.28a11.38,11.38,0,0,0,1.27,0,2.8,2.8,0,0,1,1.46.36c.42.31.86.59,1.29.88.1.06.19.21.32.14s.07-.22.07-.34A4.33,4.33,0,0,1,134.92,46Z"/><path id="_Path_14" data-name="&lt;Path&gt;" class="cls-8" d="M130.88,48.29a11.38,11.38,0,0,1-1.27,0c-.25,0-.3-.07-.14-.28.33-.45.63-.92,1-1.38a1.74,1.74,0,0,0,.33-1c0-.54,0-1.09,0-1.63,0-.25,0-.34.29-.16.45.32.92.6,1.37.92a1.85,1.85,0,0,0,1.08.35l1.61,0c.09,0,.23,0,.27.05s-.05.19-.11.28l-.38.53c-.08,0-.16-.07-.23-.05a6.75,6.75,0,0,0-2.06.87A18.18,18.18,0,0,0,130.88,48.29Z"/><path id="_Path_15" data-name="&lt;Path&gt;" class="cls-9" d="M131.08,48.23a18.18,18.18,0,0,1,1.75-1.5,6.75,6.75,0,0,1,2.06-.87c.07,0,.15,0,.23.05a4.33,4.33,0,0,0-.9,3.35c0,.12.06.28-.07.34s-.22-.08-.32-.14c-.44-.29-.88-.57-1.29-.88A2.8,2.8,0,0,0,131.08,48.23Z"/></g><g id="_Group_5" data-name="&lt;Group&gt;"><path id="_Compound_Path_2" data-name="&lt;Compound Path&gt;" class="cls-7" d="M154.62,16.21a1.22,1.22,0,0,1-.18-1.66,14.84,14.84,0,0,1,1.17-1.68,4.6,4.6,0,0,0,1.17-3.55,18.91,18.91,0,0,1,0-2,1.28,1.28,0,0,1,.67-1.22,1.31,1.31,0,0,1,1.43.17c.89.6,1.8,1.17,2.66,1.8a2.36,2.36,0,0,0,1.51.38,32.57,32.57,0,0,1,3.42.16,1.17,1.17,0,0,1,.74,1.9c-.5.75-1,1.52-1.54,2.22a3.37,3.37,0,0,0-.79,2.39c0,.85,0,1.71-.05,2.56a1.25,1.25,0,0,1-.71,1.19,1.3,1.3,0,0,1-1.4-.13l-2.9-2a1.25,1.25,0,0,0-.72-.24c-1.17,0-2.34-.06-3.52-.09A1.51,1.51,0,0,1,154.62,16.21Zm8.74-4.38.38-.53c.06-.09.19-.17.11-.28s-.17-.05-.27-.05l-1.61,0a1.85,1.85,0,0,1-1.08-.35c-.45-.32-.92-.6-1.37-.92-.25-.18-.29-.09-.29.16,0,.54,0,1.09,0,1.63a1.74,1.74,0,0,1-.33,1c-.33.45-.63.93-1,1.38-.15.21-.11.28.14.28a11.38,11.38,0,0,0,1.27,0,2.8,2.8,0,0,1,1.46.36c.42.31.86.59,1.29.88.1.06.19.21.32.14s.07-.22.07-.34A4.33,4.33,0,0,1,163.37,11.82Z"/><path id="_Path_16" data-name="&lt;Path&gt;" class="cls-8" d="M159.33,14.14a11.38,11.38,0,0,1-1.27,0c-.25,0-.3-.07-.14-.28.33-.45.63-.92,1-1.38a1.74,1.74,0,0,0,.33-1c0-.54,0-1.09,0-1.63,0-.25,0-.34.29-.16.45.32.92.6,1.37.92a1.85,1.85,0,0,0,1.08.35l1.61,0c.09,0,.23,0,.27.05s-.05.19-.11.28l-.38.53c-.08,0-.16-.07-.23-.05a6.75,6.75,0,0,0-2.06.87A18.18,18.18,0,0,0,159.33,14.14Z"/><path id="_Path_17" data-name="&lt;Path&gt;" class="cls-9" d="M159.52,14.08a18.18,18.18,0,0,1,1.75-1.5,6.75,6.75,0,0,1,2.06-.87c.07,0,.15,0,.23.05a4.33,4.33,0,0,0-.9,3.35c0,.12.06.28-.07.34s-.22-.08-.32-.14c-.44-.29-.88-.57-1.29-.88A2.8,2.8,0,0,0,159.52,14.08Z"/></g><g id="_Group_6" data-name="&lt;Group&gt;"><path id="_Compound_Path_3" data-name="&lt;Compound Path&gt;" class="cls-10" d="M50.67,69.36a11.59,11.59,0,0,0-4.13-.92,11.53,11.53,0,0,0,3.91-1.6c3.73-2.54,4.5-5.29,3.2-7.12s-4.17-2.07-7.9.47a11.45,11.45,0,0,0-2.88,3.07,11,11,0,0,0,.55-4.15c-.38-4.44-2.4-6.46-4.66-6.28s-3.91,2.51-3.53,7a11.14,11.14,0,0,0,1.26,4,11.53,11.53,0,0,0-3.37-2.55c-4.11-1.9-6.9-1.19-7.87.84s.26,4.58,4.37,6.48a11.47,11.47,0,0,0,4.14.93,11.84,11.84,0,0,0-3.94,1.6c-3.72,2.55-4.49,5.29-3.19,7.11s4.17,2.07,7.89-.48a11.12,11.12,0,0,0,2.89-3.06,11.09,11.09,0,0,0-.55,4.14c.38,4.45,2.4,6.47,4.66,6.28s3.9-2.51,3.53-7a11.14,11.14,0,0,0-1.26-4,11.52,11.52,0,0,0,3.36,2.54c4.11,1.9,6.9,1.19,7.87-.82s-.26-4.6-4.37-6.5ZM40.43,72.2a3.29,3.29,0,0,1-3.56-3,3.29,3.29,0,1,1,3.56,3Zm0,0"/><path id="_Compound_Path_4" data-name="&lt;Compound Path&gt;" class="cls-10" d="M72.95,109.74a15.59,15.59,0,0,0-5-2.6,15.69,15.69,0,0,0,5.64-.72c5.73-2,7.68-5.32,6.65-8.13s-4.66-4.1-10.39-2.07a15.67,15.67,0,0,0-4.81,3A14.83,14.83,0,0,0,67.19,94c1.07-5.9-.84-9.2-3.83-9.73s-6,1.92-7,7.82a15,15,0,0,0,.22,5.59,15.3,15.3,0,0,0-3.46-4.44c-4.65-3.87-8.52-3.9-10.48-1.6s-1.29,6,3.37,9.89a15.34,15.34,0,0,0,5,2.6,15.9,15.9,0,0,0-5.64.72c-5.73,2-7.68,5.32-6.65,8.13s4.66,4.1,10.39,2.07a15.36,15.36,0,0,0,4.81-3,15.14,15.14,0,0,0-2.19,5.17c-1.07,5.9.84,9.2,3.83,9.73s6-1.93,7-7.82a15,15,0,0,0-.23-5.59A15.3,15.3,0,0,0,65.84,118c4.66,3.87,8.52,3.9,10.48,1.61s1.28-6-3.37-9.9Zm-14.26.18a4.34,4.34,0,0,1-3.56-5,4.39,4.39,0,0,1,5.12-3.5,4.33,4.33,0,0,1,3.56,5,4.42,4.42,0,0,1-5.12,3.5Zm0,0"/><path id="_Compound_Path_5" data-name="&lt;Compound Path&gt;" class="cls-10" d="M83.71,66.94a8.23,8.23,0,0,0-2.32,1.88,8,8,0,0,0,.8-2.85c.18-3.16-1-4.78-2.65-4.87s-3,1.39-3.17,4.55a7.8,7.8,0,0,0,.49,2.92,8.21,8.21,0,0,0-2.11-2.11C72,64.73,70,65,69.15,66.28s-.29,3.25,2.41,5a7.83,7.83,0,0,0,2.81,1.05,8.43,8.43,0,0,0-2.91.74c-2.87,1.43-3.68,3.27-3,4.68s2.72,1.86,5.58.43a8,8,0,0,0,2.33-1.87,8.2,8.2,0,0,0-.81,2.86c-.18,3.16,1,4.77,2.65,4.86s3-1.38,3.17-4.55a7.73,7.73,0,0,0-.49-2.92,8.21,8.21,0,0,0,2.11,2.11c2.69,1.73,4.73,1.5,5.61.17s.28-3.25-2.42-5a8.32,8.32,0,0,0-2.81-1,8.44,8.44,0,0,0,2.91-.74c2.88-1.43,3.68-3.27,3-4.68s-2.72-1.87-5.59-.44Zm-2.86,6.87a2.35,2.35,0,0,1-3.22.66,2.26,2.26,0,0,1-.68-3.17,2.34,2.34,0,0,1,3.22-.67,2.27,2.27,0,0,1,.68,3.18Zm0,0"/></g></g></svg>