<svg id="Layer_11" data-name="Layer 11" xmlns="http://www.w3.org/2000/svg" viewBox="0 0 192 192"><defs><style>.cls-1{fill:#c4c5c7;}.cls-2{fill:#050405;}.cls-3{fill:#f1f1f2;}.cls-4{fill:#a4a6a9;}.cls-5{fill:#f21c1c;}.cls-6{fill:#010101;}</style></defs><title>general service</title><path id="_Path_" data-name="&lt;Path&gt;" class="cls-1" d="M114.23,169.39c-.48-1,.6-1.34,1-1.9,1.61-2.11,3.33-4.13,5-6.19a1,1,0,0,1,.78-.48,31.56,31.56,0,0,0,9.29,8.33c10,5.59,20.1,5.58,30.13.24,1.21-.64,1.82-.65,2.75.38A26.7,26.7,0,0,0,170,175c.72.4.77.87.9,1.58.66,3.7-2.1,4.86-4.73,6.16a1.3,1.3,0,0,1-1.22-.07c-1.32-.6-2.71-1.08-4-1.8a6.27,6.27,0,0,0-5.82-.55,3.94,3.94,0,0,0-2.33,1.7,35.33,35.33,0,0,1-2.13,3.1c-.57.8-.88,2.08-1.84,2.24a31.8,31.8,0,0,1-5.32.13c-.5,0-.63-.54-.87-.86-1.1-1.47-2.21-3-3.25-4.47a5,5,0,0,0-2.4-1.62c-2.56-1.12-4.53,0-6.65,1.07-4,2-4,1.93-7.79-.27a2,2,0,0,1-1.19-1.82c0-1.24-.32-2.48-.31-3.72a6.5,6.5,0,0,0-2.41-5.13C117.29,169.39,115.72,169.78,114.23,169.39Z"/><path id="_Path_2" data-name="&lt;Path&gt;" class="cls-1" d="M129.79,182.88c-1-.7-.19-1.55-.12-2.28.29-2.77.72-5.53,1.09-8.3a1,1,0,0,1,.43-.84,32.58,32.58,0,0,0,12.66,2.85c11.86-.07,20.71-5.29,26.68-15.41.72-1.22,1.25-1.54,2.62-1.08a27.31,27.31,0,0,0,8.81,1.28c.85,0,1.15.4,1.64,1,2.56,3.06.76,5.56-.86,8.12-.45,1.09-.65.53-1.11.57-1.23,1.66-2.89,1.56-4.45.39-3.16,1.06-3.57.75-5.42,2.51a4.06,4.06,0,0,0-1.14,2.78,38,38,0,0,1-.21,4c-.07,1,.34,2.37-.42,3a31.22,31.22,0,0,1-4.62,2.87c-.44.25-.84-.17-1.23-.34-1.76-.78-3.53-1.57-5.26-2.43a5.05,5.05,0,0,0-3-.25c-2.86.3-4,2.37-5.29,4.43-2.46,3.91-2.5,3.86-7,3.79a2.12,2.12,0,0,1-2-1.06c-.69-1.13-1.61-2.12-2.27-3.26a7,7,0,0,0-4.87-3.47C132.5,181.29,131.32,182.47,129.79,182.88Z"/><path id="_Compound_Path_" data-name="&lt;Compound Path&gt;" class="cls-2" d="M27.93,158.32c0-.6.06-1.21.06-1.81q0-63.63-.06-127.26c0-5.16,3.45-8.57,8.65-8.41,6.81.22,13.63,0,20.44.08,1.08,0,1.4-.25,1.38-1.32-.08-3.18,0-6.36,0-9.54,0-1.72.29-2,2.1-2q24.66,0,49.31,0c1.48,0,2,.48,2,1.95-.08,3,.06,6.06-.06,9.09-.05,1.42.28,1.87,1.84,1.85,6.81-.09,13.63,0,20.44,0,5.21,0,8.24,2.93,8.24,8q0,26.06,0,52.12a2.51,2.51,0,0,0,1.57,2.68,29.94,29.94,0,0,1,10.54,9c.27.36.55.72.88,1.14,2.93-2.85,5.79-5.64,8.64-8.44.66-.65,1.37-1.3,2.23-.46s.2,1.52-.47,2.17c-2.77,2.67-5.5,5.38-8.3,8A1.33,1.33,0,0,0,157,97a27.62,27.62,0,0,1,3.1,10.07c.09.9.37,1.28,1.21.66,2.43-1.79,4.57-1.06,7,.31s4.24,2.77,3.8,5.81a14.2,14.2,0,0,0,.21,2.71c.13,2.36,1.14,3.42,3.53,3.63,1.86.16,3.72.36,5.59.44a2.18,2.18,0,0,1,1.86,1.11c3.79,5.43,3.8,5.42.84,11.31-1.44,2.86-1.18,3.78,1.57,5.59a24,24,0,0,0,2.71,1.77c1.87.9,2.44,2.26,2.43,4.25,0,5.3.07,5.3-4.54,8.3a16.43,16.43,0,0,0-1.91,1.3,2.84,2.84,0,0,0-.9,3.37c.47,1.17,1.12,2.26,1.7,3.39,1.94,2.5,1.25,4.82-.49,7.09a16.71,16.71,0,0,0-1.33,2,2.25,2.25,0,0,1-2.1,1.26c-2.07.08-4.14.3-6.2.48a3.55,3.55,0,0,0-2.68,2.5c-.14,1.6-.22,3.21-.33,4.82.24,2-.87,3.06-2.54,4-4.68,2.7-4.64,2.76-9.51.43-.7-.33-1.39-.68-2.09-1a3.45,3.45,0,0,0-3.8,1c-1.06,1.49-2.18,3-3.14,4.5a3,3,0,0,1-2.63,1.51c-6.34.44-6.32.46-10-4.61-.62-.87-.92-2-2.23-2.36a3.83,3.83,0,0,0-3.23.24c-1,.61-2.23.89-3.18,1.56-2.06,1.43-3.92,1-5.83-.23-.85-.56-1.79-1-2.69-1.49a3.2,3.2,0,0,1-1.69-3.25c0-1.4-.2-2.81-.29-4.22-.14-2.22-1.22-3.32-3.54-3.52-1.86-.16-3.73-.29-5.59-.42-.58,0-1.21-.06-1.48-.64-.45-1-1.26-1-2.18-1q-35.27,0-70.53,0c-4.72,0-7.8-3-7.86-7.55C28,160.95,27.95,159.64,27.93,158.32Zm153.76,1.74c-.36-1.4-1.44-2.5-1-4.26a6.42,6.42,0,0,1,3.37-4.38c1.09-.58,2-1.39,3.11-2a1.92,1.92,0,0,0,1-1.83c.15-4.12.2-4.15-3.43-6.48-1.92-1.23-3.85-2.3-4.07-4.92a4.48,4.48,0,0,1,.29-2.72c.84-1.56,1.62-3.16,2.39-4.75.17-.35.57-.71.34-1.11a28.4,28.4,0,0,0-2.62-4.27c-.59-.71-1.86-.36-2.83-.45a36.88,36.88,0,0,0-3.73-.27,3.89,3.89,0,0,1-2.59-1.1,5.58,5.58,0,0,1-2.26-5,39,39,0,0,0-.28-4.07,1.16,1.16,0,0,0-.52-1c-2.38-1.53-4.7-3.23-7.64-1-.56.44-1,.7-1,1.48a24.23,24.23,0,0,1-1.38,8c-.46,1.24-.17,1.73,1,2.42,9.41,5.66,14.16,13.86,14,24.68a29,29,0,0,1-2.94,11.5c-.19.29-.4.58-.58.88a28.31,28.31,0,0,1-34.77,12.11,25.48,25.48,0,0,0-10.38-1.74c-.78,0-1.56,0-2.34,0h-3.94l-.19.32c2.5,1.45,3,3.67,3,6.22.1,4.24.22,4.22,4.09,6.25a1.9,1.9,0,0,0,2,.07c1.5-.8,3.07-1.46,4.61-2.2a6.08,6.08,0,0,1,6.8,1.51,15.19,15.19,0,0,1,1.58,2.39c1.23,2.91,3.59,3.36,6.4,3a3.27,3.27,0,0,1,.46-.07,1.37,1.37,0,0,0,1.26-.71c1.24-1.85,2.51-3.67,3.78-5.5,2.29-1,4.6-1.78,7-.32a9.55,9.55,0,0,1,1.34.73c2.72,2.09,5.13,1.15,7.5-.64.47-.35,1-.63.79-1.31.15-2,.28-3.92.47-5.88.16-1.71,2.72-4,4.49-4.17a13.55,13.55,0,0,1,2.79-.2c3.62.53,5.23-1.57,6.39-4.37a1.27,1.27,0,0,0,0-1.26C182.91,162.5,182.31,161.28,181.69,160.07Zm-39.37-3.85c0,1.61-.13,3.23,0,4.84.19,3.83-1.14,6.77-4.91,8.37.2.4.53.4.83.48a24.88,24.88,0,0,0,11.08.86c8.23-1.28,14.54-5.32,18.73-12.39a22.9,22.9,0,0,0,3-16.7c-1.4-7.57-5.69-13.28-12.45-17.24-.47-.27-1-.84-1.46.13a31.21,31.21,0,0,1-14.24,14.09,1,1,0,0,0-.62,1.08Q142.29,148,142.32,156.22ZM43.19,88q0,31.67,0,63.34c0,1.15.25,1.56,1.53,1.53,3.64-.09,7.28,0,10.92,0q35,0,69.92,0c1.1,0,1.54-.17,1.49-1.37-.11-2.82-.05-5.66,0-8.48,0-.73-.13-1-1-1.06-13.49-1.35-22.81-8.15-27.85-20.37a2,2,0,0,0-2.2-1.45c-12.69,0-25.39,0-38.08,0a6.85,6.85,0,0,1-1.4-.06,1.11,1.11,0,0,1-.92-1.08,1.08,1.08,0,0,1,.76-1.19,4.82,4.82,0,0,1,1.39-.1c12.49,0,25,0,37.46,0,1.42,0,1.78-.26,1.51-1.68a28.51,28.51,0,0,1,1.88-16.9c.61-1.42.17-1.48-1.12-1.48-13.16,0-26.32,0-39.49,0a8.19,8.19,0,0,1-1.4,0,1.2,1.2,0,0,1,0-2.36,7.67,7.67,0,0,1,1.4,0q20.52,0,41,0a2.31,2.31,0,0,0,2.23-1.15A31.58,31.58,0,0,1,126,79.86c.8-.06,1-.29,1-1.07q0-27.2,0-54.4c0-.87-.26-1.09-1.14-1.08-4.27,0-8.53.06-12.8,0-1.15,0-1.37.38-1.35,1.39.06,3,0,6.06.05,9.09,0,1.48-.55,2-2,2q-24.74,0-49.48,0c-1.47,0-2-.61-2-2,.07-3.08,0-6.16,0-9.24,0-.92-.23-1.2-1.2-1.19-4.11.05-8.22.09-12.33,0-1.39,0-1.71.34-1.71,1.67Q43.23,56.48,43.19,88ZM30.5,95.3q0,33.25,0,66.51c0,3.54,1.91,5.56,5.29,5.56h98.62c3.18,0,5.31-2,5.32-5.1,0-7,0-14,0-21.06,0-1.1-.33-1.11-1.25-.8a28.61,28.61,0,0,1-7.92,1.53c-.89,0-1.12.29-1.11,1.12,0,3.18,0,6.36,0,9.54,0,2.64,0,2.65-2.67,2.65H43.66c-3,0-3,0-3-2.83q0-63.32,0-126.65a11.14,11.14,0,0,1,0-1.21c.1-.89-.21-1.31-1.2-1.23s-2,0-3,0c-4.26,0-6,1.72-6,5.9Q30.5,62.28,30.5,95.3Zm124.08,2.57c-.49.46-.87.79-1.23,1.14l-24.94,24.21c-1.53,1.48-1.76,1.49-3.25,0l-12.36-12a9.92,9.92,0,0,1-.75-.77,1.1,1.1,0,0,1,.06-1.63,1.23,1.23,0,0,1,1.69-.08,8.23,8.23,0,0,1,.9.83c3.72,3.6,7.46,7.18,11.12,10.84.84.84,1.22.72,2,0q12.2-11.93,24.5-23.78c.83-.8.87-1.31.21-2.22a30.2,30.2,0,0,0-35.15-10.24A28.75,28.75,0,0,0,99,114.85c2.81,19.81,25.37,30.83,43.48,21.24C156.45,128.67,162,111.24,154.58,97.87ZM85.19,10.5c-7.64,0-15.28,0-22.92,0-1.06,0-1.43.24-1.42,1.33q.08,10.07,0,20.13c0,1.15.34,1.45,1.49,1.45q22.76,0,45.53,0c1.07,0,1.42-.28,1.41-1.35q-.07-10.07,0-20.13c0-1.14-.32-1.44-1.48-1.43C100.26,10.52,92.73,10.5,85.19,10.5Zm54.56,71.24V79.91q0-25.29,0-50.58c0-.35,0-.71,0-1.06a4.92,4.92,0,0,0-5.18-4.92c-1,0-2.09.09-3.12,0-1.5-.16-2,.23-2,1.84.07,17.21,0,34.42,0,51.63,0,2.76,0,2.79,2.74,3.16A41.43,41.43,0,0,1,139.75,81.74Z"/><path id="_Compound_Path_2" data-name="&lt;Compound Path&gt;" class="cls-3" d="M43.19,88q0-31.52,0-63c0-1.33.32-1.7,1.71-1.67,4.11.1,8.22.07,12.33,0,1,0,1.22.26,1.2,1.19-.06,3.08,0,6.16,0,9.24,0,1.42.51,2,2,2q24.74,0,49.48,0c1.44,0,2-.5,2-2-.1-3,0-6.06-.05-9.09,0-1,.2-1.41,1.35-1.39,4.26.07,8.53,0,12.8,0,.87,0,1.14.2,1.14,1.08q0,27.2,0,54.4c0,.78-.24,1-1,1.07a31.58,31.58,0,0,0-24.75,14.31A2.31,2.31,0,0,1,99,95.32q-20.52,0-41,0a7.67,7.67,0,0,0-1.4,0,1.2,1.2,0,0,0,0,2.36,8.19,8.19,0,0,0,1.4,0c13.16,0,26.32,0,39.49,0,1.29,0,1.73.06,1.12,1.48a28.51,28.51,0,0,0-1.88,16.9c.27,1.42-.09,1.68-1.51,1.68-12.49-.06-25,0-37.46,0a4.82,4.82,0,0,0-1.39.1,1.08,1.08,0,0,0-.76,1.19,1.11,1.11,0,0,0,.92,1.08,6.85,6.85,0,0,0,1.4.06c12.69,0,25.39,0,38.08,0a2,2,0,0,1,2.2,1.45c5,12.22,14.36,19,27.85,20.37.86.09,1,.33,1,1.06,0,2.83-.09,5.66,0,8.48,0,1.2-.39,1.37-1.49,1.37q-35,0-69.92,0c-3.64,0-7.29-.06-10.92,0-1.28,0-1.53-.37-1.53-1.53Q43.22,119.67,43.19,88ZM85.07,52.88h27.29c.36,0,.73,0,1.09,0a1.1,1.1,0,0,0,1.16-1.16,1.14,1.14,0,0,0-1.11-1.23,9.76,9.76,0,0,0-1.25,0H58a7.17,7.17,0,0,0-1.55.09,1.06,1.06,0,0,0-.87,1.11,1.12,1.12,0,0,0,1,1.19,6.92,6.92,0,0,0,1.24,0ZM85,75.3h28.37a1.12,1.12,0,0,0,1.22-1.12,1.15,1.15,0,0,0-1.21-1.29c-.36,0-.73,0-1.09,0H57.89c-.36,0-.73,0-1.09,0-.79.07-1.26.5-1.22,1.28a1.13,1.13,0,0,0,1.21,1.13c.36,0,.73,0,1.09,0Z"/><path id="_Path_3" data-name="&lt;Path&gt;" class="cls-4" d="M30.5,95.3q0-33,0-66.05c0-4.19,1.75-5.9,6-5.9,1,0,2,.06,3,0s1.3.35,1.2,1.23a11.14,11.14,0,0,0,0,1.21q0,63.32,0,126.65c0,2.82,0,2.83,3,2.83h83.17c2.66,0,2.67,0,2.67-2.65,0-3.18,0-6.36,0-9.54,0-.84.22-1.08,1.11-1.12a28.61,28.61,0,0,0,7.92-1.53c.93-.32,1.26-.31,1.25.8,0,7,0,14,0,21.06,0,3.08-2.14,5.1-5.32,5.1H35.79c-3.38,0-5.29-2-5.29-5.56Q30.49,128.56,30.5,95.3Z"/><path id="_Path_4" data-name="&lt;Path&gt;" class="cls-3" d="M154.58,97.87c7.47,13.37,1.88,30.8-12.13,38.22-18.1,9.59-40.67-1.43-43.48-21.24a28.75,28.75,0,0,1,18.42-30.67,30.2,30.2,0,0,1,35.15,10.24c.66.91.63,1.41-.21,2.22q-12.3,11.84-24.5,23.78c-.78.76-1.16.87-2,0-3.66-3.66-7.4-7.23-11.12-10.84a8.23,8.23,0,0,0-.9-.83,1.23,1.23,0,0,0-1.69.08,1.1,1.1,0,0,0-.06,1.63,9.92,9.92,0,0,0,.75.77l12.36,12c1.49,1.45,1.73,1.44,3.25,0L153.35,99C153.71,98.66,154.08,98.33,154.58,97.87Z"/><path id="_Path_5" data-name="&lt;Path&gt;" class="cls-5" d="M85.19,10.5c7.54,0,15.07,0,22.61,0,1.16,0,1.49.29,1.48,1.43Q109.2,22,109.28,32c0,1.07-.33,1.35-1.41,1.35q-22.76,0-45.53,0c-1.15,0-1.5-.3-1.49-1.45q.08-10.07,0-20.13c0-1.1.37-1.34,1.42-1.33C69.91,10.51,77.55,10.5,85.19,10.5Z"/><path id="_Path_6" data-name="&lt;Path&gt;" class="cls-1" d="M181.69,160.07c-.68.87-1.46.14-2.15.06-2.61-.32-5.2-.77-7.79-1.16a1,1,0,0,1-.79-.41,29,29,0,0,0,2.94-11.5c.17-10.82-4.57-19-14-24.68-1.14-.68-1.42-1.17-1-2.42a24.23,24.23,0,0,0,1.38-8c0-.78.4-1,1-1.48,2.93-2.28,5.25-.58,7.64,1a1.16,1.16,0,0,1,.52,1,39,39,0,0,1,.28,4.07,5.58,5.58,0,0,0,2.26,5,3.89,3.89,0,0,0,2.59,1.1,36.88,36.88,0,0,1,3.73.27c1,.09,2.24-.27,2.83.45a28.4,28.4,0,0,1,2.62,4.27c.23.41-.17.77-.34,1.11-.77,1.59-1.55,3.19-2.39,4.75a4.48,4.48,0,0,0-.29,2.72c.22,2.62,2.15,3.69,4.07,4.92,3.63,2.33,3.59,2.37,3.43,6.48a1.92,1.92,0,0,1-1,1.83c-1.07.61-2,1.43-3.11,2a6.42,6.42,0,0,0-3.37,4.38C180.25,157.57,181.33,158.67,181.69,160.07Z"/><path id="_Path_7" data-name="&lt;Path&gt;" class="cls-4" d="M139.75,81.74A41.43,41.43,0,0,0,132.24,80c-2.74-.37-2.74-.39-2.74-3.16,0-17.21,0-34.42,0-51.63,0-1.61.49-2,2-1.84,1,.11,2.08,0,3.12,0a4.92,4.92,0,0,1,5.18,4.92c0,.35,0,.71,0,1.06q0,25.29,0,50.58Z"/><path id="_Path_8" data-name="&lt;Path&gt;" class="cls-6" d="M85.07,52.88H57.78a6.92,6.92,0,0,1-1.24,0,1.12,1.12,0,0,1-1-1.19,1.06,1.06,0,0,1,.87-1.11A7.17,7.17,0,0,1,58,50.46h54.26a9.76,9.76,0,0,1,1.25,0,1.14,1.14,0,0,1,1.11,1.23,1.1,1.1,0,0,1-1.16,1.16c-.36,0-.73,0-1.09,0Z"/><path id="_Path_9" data-name="&lt;Path&gt;" class="cls-6" d="M85,75.3H57.89c-.36,0-.73,0-1.09,0a1.13,1.13,0,0,1-1.21-1.13c0-.78.43-1.21,1.22-1.28.36,0,.73,0,1.09,0H112.3c.36,0,.73,0,1.09,0a1.15,1.15,0,0,1,1.21,1.29,1.12,1.12,0,0,1-1.22,1.12H85Z"/></svg>